<svg version="1.1" xmlns="http://www.w3.org/2000/svg" xmlns:xlink="http://www.w3.org/1999/xlink" x="0px" y="0px" width="333px" height="90px" viewBox="0 0 333 90" style="overflow:visible;enable-background:new 0 0 333 90;" xml:space="preserve">
<style type="text/css">
	.st0{fill:#F5A569;}
    .st1{fill:#E5E680;}
    .st2{fill:#6EC0A6;}
    .st3{fill:#377DC1;}
    .st4{fill:#fff}

</style>
    <defs>
</defs>
    <g>
	<g>
		<g>
			<path class="st0" d="M333,9c0,5-4,9-9,9h-45c5,0,9-4,9-9c0-5-4-9-9-9h45C329,0,333,4,333,9z"></path>
            <path class="st0" d="M333,45c0,5-4,9-9,9h-36c-5,0-9-4-9-9c0-5,4-9,9-9h36C329,36,333,40,333,45z"></path>
            <path class="st0" d="M333,81c0,5-4,9-9,9h-36c-5,0-9-4-9-9c0-5,4-9,9-9h36C329,72,333,76,333,81z"></path>
		</g>
        <path class="st1" d="M288,9c0,5-4,9-9,9c-8.6,0-10.9,7-13.6,28.1c-1.2,9.5-2.4,19.4-6.1,27.4c-6.1,13.4-16.8,16.4-24.9,16.5
			c4.8-0.2,8.5-4.2,8.5-9c0-5-4-9-9-9c8.6,0,10.9-7,13.6-28.1c1.2-9.5,2.4-19.4,6.1-27.4C259.9,2.9,270.9,0,279,0C284,0,288,4,288,9
			z"></path>
	</g>
        <path class="st2" d="M243,81c0,4.8-3.8,8.8-8.5,9c-0.1,0-0.3,0-0.5,0c-8.1,0-19.1-2.9-25.3-16.5c-3.7-8-4.9-17.9-6.1-27.4
		C199.9,25,197.6,18,189,18c5,0,9-4,9-9c0-4.8-3.8-8.8-8.5-9c8.1,0.1,18.8,3.1,24.9,16.5c3.7,8,4.9,17.9,6.1,27.4
		C223.1,65,225.4,72,234,72C239,72,243,76,243,81z"></path>
        <path class="st3" d="M198,9c0,5-4,9-9,9c-8.6,0-10.9,7-13.6,28.1c-1.2,9.5-2.4,19.4-6.1,27.4c-6.1,13.4-16.8,16.4-24.9,16.5
		c4.8-0.2,8.5-4.2,8.5-9c0-5-4-9-9-9c8.6,0,10.9-7,13.6-28.1c1.2-9.5,2.4-19.4,6.1-27.4C169.9,2.9,180.9,0,189,0c0.2,0,0.3,0,0.5,0
		C194.2,0.2,198,4.2,198,9z"></path>
        <path class="st4" d="M153,81c0,4.8-3.8,8.8-8.5,9c-0.1,0-0.3,0-0.5,0c-8.1,0-19.1-2.9-25.3-16.5c-3.7-8-4.9-17.9-6.1-27.4
		C109.9,25,107.6,18,99,18s-10.9,7-13.6,28.1c-1.2,9.5-2.4,19.4-6.1,27.4C73.1,87.1,62.1,90,54,90s-19.1-2.9-25.3-16.5
		c-3.7-8-4.9-17.9-6.1-27.4C19.9,25,17.6,18,9,18c-5,0-9-4-9-9c0-5,4-9,9-9c8.1,0,19.1,2.9,25.3,16.5c3.7,8,4.9,17.9,6.1,27.4
		C43.1,65,45.4,72,54,72s10.9-7,13.6-28.1c1.2-9.5,2.4-19.4,6.1-27.4C79.9,2.9,90.9,0,99,0s19.1,2.9,25.3,16.5
		c3.7,8,4.9,17.9,6.1,27.4C133.1,65,135.4,72,144,72C149,72,153,76,153,81z"></path>
</g>
</svg>